<svg width="157" height="33" viewBox="0 0 157 33" fill="none" xmlns="http://www.w3.org/2000/svg">
<path d="M29.4239 0H2.25631C1.01145 0 0 1.02559 0 2.2846V29.4027C0 30.6617 1.01145 31.6873 2.25631 31.6873H29.4239C30.6688 31.6873 31.6873 30.6617 31.6873 29.4027V2.2846C31.6873 1.02559 30.6688 0 29.4239 0ZM9.57692 27.1606H4.88041V12.0384H9.584V27.1606H9.57692ZM7.22867 9.97302C5.72211 9.97302 4.50554 8.74938 4.50554 7.24989C4.50554 5.7504 5.72211 4.52676 7.22867 4.52676C8.72816 4.52676 9.9518 5.7504 9.9518 7.24989C9.9518 8.75645 8.73523 9.97302 7.22867 9.97302ZM27.1818 27.1606H22.4853V19.8046C22.4853 18.0505 22.4499 15.7941 20.0451 15.7941C17.5978 15.7941 17.2229 17.7039 17.2229 19.6773V27.1606H12.5264V12.0384H17.0319V14.1037H17.0956C17.7251 12.9154 19.2599 11.6635 21.5445 11.6635C26.2976 11.6635 27.1818 14.7968 27.1818 18.8709V27.1606Z" fill="white"/>
<path d="M90.3246 0H65.1238C63.2266 0 61.6873 1.53925 61.6873 3.43647V28.6373C61.6873 30.5345 63.2266 32.0737 65.1238 32.0737H90.3246C92.2218 32.0737 93.7611 30.5345 93.7611 28.6373V3.43647C93.7611 1.53925 92.2218 0 90.3246 0ZM81.5401 27.4703C80.9387 27.5777 80.7168 27.2054 80.7168 26.8976C80.7168 26.511 80.7311 24.535 80.7311 22.9385C80.7311 21.8216 80.3588 21.1128 79.9221 20.7405C82.571 20.447 85.3632 20.0819 85.3632 15.5071C85.3632 14.2041 84.8978 13.5526 84.1389 12.7149C84.2606 12.4071 84.6687 11.1399 84.0172 9.49326C83.0221 9.18541 80.7454 10.7748 80.7454 10.7748C79.8004 10.5099 78.7766 10.3739 77.7671 10.3739C76.7577 10.3739 75.7339 10.5099 74.7889 10.7748C74.7889 10.7748 72.5122 9.18541 71.5171 9.49326C70.8656 11.1327 71.2665 12.3999 71.3954 12.7149C70.6365 13.5526 70.2785 14.2041 70.2785 15.5071C70.2785 20.0604 72.9489 20.447 75.5979 20.7405C75.2542 21.0484 74.9464 21.5782 74.839 22.3371C74.1588 22.6449 72.4191 23.1747 71.381 21.3419C70.7295 20.2108 69.5554 20.1177 69.5554 20.1177C68.3956 20.1034 69.4767 20.8479 69.4767 20.8479C70.2499 21.2059 70.794 22.5805 70.794 22.5805C71.4884 24.7068 74.8103 23.9909 74.8103 23.9909C74.8103 24.986 74.8247 26.604 74.8247 26.8976C74.8247 27.2054 74.6099 27.5777 74.0013 27.4703C69.2762 25.8881 65.9686 21.392 65.9686 16.1371C65.9686 9.56485 70.9944 4.5748 77.5667 4.5748C84.1389 4.5748 89.4655 9.56485 89.4655 16.1371C89.4726 21.392 86.2653 25.8953 81.5401 27.4703ZM74.5168 23.096C74.3808 23.1246 74.2519 23.0673 74.2376 22.9743C74.2233 22.8669 74.3164 22.7738 74.4524 22.7452C74.5884 22.7308 74.7173 22.7881 74.7316 22.8812C74.7531 22.9743 74.66 23.0673 74.5168 23.096ZM73.8367 23.0315C73.8367 23.1246 73.7293 23.2034 73.5861 23.2034C73.4286 23.2177 73.3212 23.1389 73.3212 23.0315C73.3212 22.9385 73.4286 22.8597 73.5718 22.8597C73.7078 22.8454 73.8367 22.9241 73.8367 23.0315ZM72.8559 22.9528C72.8272 23.0458 72.684 23.0888 72.5623 23.0458C72.4263 23.0172 72.3332 22.9098 72.3619 22.8167C72.3905 22.7237 72.5337 22.6807 72.6554 22.7094C72.7986 22.7523 72.8916 22.8597 72.8559 22.9528ZM71.9753 22.5662C71.9108 22.6449 71.7748 22.6306 71.6674 22.5232C71.56 22.4301 71.5314 22.2941 71.603 22.2297C71.6674 22.1509 71.8034 22.1652 71.9108 22.2726C72.0039 22.3657 72.0397 22.5089 71.9753 22.5662ZM71.3238 21.9147C71.2593 21.9576 71.1376 21.9147 71.0589 21.8073C70.9801 21.6999 70.9801 21.5782 71.0589 21.5281C71.1376 21.4636 71.2593 21.5138 71.3238 21.6211C71.4025 21.7285 71.4025 21.8574 71.3238 21.9147ZM70.8584 21.2202C70.794 21.2847 70.6866 21.2489 70.6078 21.1773C70.5291 21.0842 70.5148 20.9768 70.5792 20.9267C70.6436 20.8623 70.751 20.898 70.8298 20.9696C70.9085 21.0627 70.9228 21.1701 70.8584 21.2202ZM70.3787 20.6904C70.3501 20.7549 70.257 20.7692 70.1783 20.7191C70.0852 20.6761 70.0422 20.5974 70.0709 20.5329C70.0995 20.49 70.1783 20.4685 70.2713 20.5043C70.3644 20.5544 70.4074 20.6332 70.3787 20.6904Z" fill="white"/>
<path d="M152.743 0H127.239C125.319 0 123.761 1.53925 123.761 3.43647V28.6373C123.761 30.5345 125.319 32.0737 127.239 32.0737H152.743C154.663 32.0737 156.221 30.5345 156.221 28.6373V3.43647C156.221 1.53925 154.663 0 152.743 0ZM149.2 11.369C149.215 11.5695 149.215 11.7771 149.215 11.9775C149.215 18.1847 144.433 25.3368 135.695 25.3368C132.999 25.3368 130.499 24.5636 128.398 23.232C128.782 23.2749 129.152 23.2893 129.543 23.2893C131.767 23.2893 133.811 22.5447 135.441 21.2847C133.354 21.2417 131.601 19.8886 130.999 18.0272C131.731 18.1346 132.391 18.1346 133.144 17.9413C130.97 17.5045 129.34 15.6145 129.34 13.3307V13.2734C129.971 13.6242 130.71 13.839 131.485 13.8676C130.833 13.4392 130.299 12.858 129.93 12.176C129.56 11.4939 129.368 10.7321 129.369 9.95861C129.369 9.08517 129.601 8.28333 130.014 7.58888C132.354 10.4383 135.868 12.2997 139.81 12.5002C139.136 9.31427 141.549 6.72976 144.447 6.72976C145.817 6.72976 147.048 7.29534 147.918 8.21174C148.99 8.01128 150.019 7.61751 150.932 7.08056C150.577 8.16878 149.831 9.08517 148.845 9.66508C149.802 9.56485 150.729 9.29995 151.584 8.93483C150.939 9.8727 150.128 10.7032 149.2 11.369Z" fill="white"/>
</svg>
