<svg width="83" height="59" viewBox="0 0 83 59" fill="none" xmlns="http://www.w3.org/2000/svg">
<path d="M22.9 41.9004H28.3567C27.1867 43.7213 26.5 45.8801 26.5 48.2005V51.8005C26.5 52.2971 26.9034 52.7005 27.4 52.7005H32.8623C33.3079 56.2468 36.3354 59.0006 40.0002 59.0006C43.6649 59.0006 46.6927 56.2468 47.138 52.7005H60.7564C61.2012 56.2475 64.2359 59.0006 67.9006 59.0006C71.5654 59.0006 74.5932 56.2468 75.0385 52.7005H75.1008C75.5974 52.7005 76.0008 52.2971 76.0008 51.8005V45.9677C76.0008 41.9844 73.9946 38.3293 70.634 36.191C67.9412 34.4774 66.2959 31.6074 66.1332 28.4437C67.3695 29.5281 69.0497 30.2003 70.6007 30.2003C71.0973 30.2003 71.5007 29.7969 71.5007 29.3003V20.3002C71.5007 19.8036 71.0973 19.4002 70.6007 19.4002C68.2969 19.4002 65.7029 20.8788 64.7165 23.0002H57.1006C56.604 23.0002 56.2006 23.4036 56.2006 23.9002V27.5003C56.2006 27.9969 56.604 28.4003 57.1006 28.4003H60.7006V47.3005H53.4548C53.1639 43.5068 51.061 40.2218 48.0069 38.3004H53.5006C53.9972 38.3004 54.4006 37.897 54.4006 37.4004V16.7002C54.4006 16.2036 53.9972 15.8002 53.5006 15.8002H22.9003C22.4036 15.8002 22.0002 16.2036 22.0002 16.7002V41.0004C22.0002 41.497 22.4036 41.9004 22.9003 41.9004H22.9ZM67.9004 57.2006C65.2301 57.2006 63.0126 55.2503 62.5815 52.7005H64.4282C64.8304 54.2486 66.2282 55.4006 67.9004 55.4006C69.5727 55.4006 70.9706 54.2486 71.3727 52.7005H73.2193C72.7882 55.2503 70.5707 57.2006 67.9004 57.2006ZM66.3508 52.7005H69.4506C69.1384 53.2361 68.5643 53.6005 67.901 53.6005C67.2372 53.6005 66.6631 53.2361 66.3509 52.7005H66.3508ZM69.7005 21.301V28.2994C67.9093 27.9125 66.1004 26.458 66.1004 24.8002C66.1004 23.1423 67.9093 21.6879 69.7005 21.3009V21.301ZM62.5004 24.8003H64.3004V27.933C64.3004 31.8894 66.2832 35.5184 69.6024 37.6619C66.5521 38.4985 64.3004 41.2885 64.3004 44.6005H66.1004C66.1004 41.6296 68.5115 39.212 71.4808 39.2012C73.209 40.9996 74.2005 43.4007 74.2005 45.9677V50.9005H62.5004V24.8003ZM58.0003 26.6003V24.8003H60.7004V26.6003H58.0003ZM60.7004 50.9005H53.5003V49.1005H60.7004V50.9005ZM23.8 40.1004V38.3004H31.9929C31.1821 38.8107 30.4375 39.4129 29.7762 40.1004H23.8ZM48.1002 50.9005H31.9001V50.0005C31.9001 45.5346 35.5343 41.9004 40.0002 41.9004C44.4661 41.9004 48.1002 45.5346 48.1002 50.0005V50.9005ZM41.5498 52.7005C41.2376 53.2361 40.6635 53.6005 40.0002 53.6005C39.3369 53.6005 38.7627 53.2361 38.4505 52.7005H41.5498ZM40.0002 57.2006C37.3299 57.2006 35.1123 55.2503 34.6813 52.7005H36.5279C36.9301 54.2486 38.3279 55.4006 40.0002 55.4006C41.6724 55.4006 43.0703 54.2486 43.4725 52.7005H45.3191C44.8879 55.2503 42.6705 57.2006 40.0002 57.2006V57.2006ZM51.7003 48.2005V50.9005H49.9003V50.0005C49.9003 44.5418 45.4588 40.1004 40.0002 40.1004C34.5415 40.1004 30.1001 44.5418 30.1001 50.0005V50.9005H28.3001V48.2005C28.3001 42.7418 32.7415 38.3004 38.2001 38.3004H41.8002C47.2589 38.3004 51.7003 42.7418 51.7003 48.2005ZM52.6003 17.6002V36.5004H23.8V17.6002H52.6003Z" fill="#2E526B"/>
<path d="M49.9003 32.9004H48.1003V32.0004C48.1003 26.8451 44.1386 22.6026 39.1002 22.1461V20.3003H37.3002V22.1461C32.2618 22.6025 28.3001 26.8451 28.3001 32.0004V32.9004H26.5001V34.7004H49.9003V32.9004ZM30.1001 32.0004C30.1001 27.5345 33.7343 23.9003 38.2002 23.9003C42.6661 23.9003 46.3003 27.5345 46.3003 32.0004V32.9004H30.1001V32.0004Z" fill="#37C8DC"/>
<path d="M48.1003 14.0001H49.9003C49.9003 9.03759 45.8627 5 40.9002 5H25.6001V6.80002H40.9002C44.8703 6.80002 48.1003 10.03 48.1003 14.0001Z" fill="#37C8DC"/>
<path d="M34.6002 8.6001V10.4001H40.0002C41.9855 10.4001 43.6002 12.0149 43.6002 14.0002H45.4003C45.4003 11.0221 42.9783 8.6001 40.0002 8.6001H34.6002Z" fill="#37C8DC"/>
<path d="M31.0001 8.6001H32.8001V10.4001H31.0001V8.6001Z" fill="#37C8DC"/>
<path d="M22 5.00012H23.8V6.80014H22V5.00012Z" fill="#37C8DC"/>
<path d="M27.4001 8.6001H29.2001V10.4001H27.4001V8.6001Z" fill="#37C8DC"/>
<path d="M32.7436 28.8498L34.3013 29.7514C35.1053 28.3628 36.5992 27.5006 38.2003 27.5006V25.7006C35.9583 25.7006 33.8678 26.9075 32.7436 28.8498V28.8498Z" fill="#37C8DC"/>
<path d="M64.3004 46.4004H66.1004V48.2004H64.3004V46.4004Z" fill="#2E526B"/>
<path d="M6.75855 38.9071C6.57832 38.3639 6.07271 38 5.49996 38C4.9272 38 4.42159 38.3649 4.24137 38.9081C3.5511 40.9918 2.99068 41.5528 0.909014 42.2406C0.365875 42.4198 0.000987939 42.9255 1.99923e-06 43.4983C-0.000985458 44.0725 0.363904 44.5787 0.908029 44.7594C2.99076 45.4472 3.55161 46.0082 4.24139 48.0929C4.4226 48.6351 4.92772 49 5.49949 49C6.07126 49 6.57785 48.6351 6.75808 48.0919C7.44835 46.0082 8.00877 45.4472 10.093 44.7584C10.6361 44.5782 11.001 44.0715 11 43.4973C10.999 42.9245 10.6351 42.4188 10.093 42.2406C8.00934 41.5527 7.44836 40.9908 6.75858 38.9071L6.75855 38.9071ZM5.49946 45.434C5.00965 44.5911 4.40776 43.9896 3.56487 43.4993C4.40871 43.0094 5.00915 42.4075 5.49946 41.5646C5.98927 42.4075 6.59116 43.0089 7.43405 43.4993C6.59269 43.9896 5.99079 44.591 5.49946 45.434ZM9.3962 44.3412C9.39719 44.3412 9.39719 44.3412 9.3962 44.3412H9.39818H9.3962Z" fill="#37C8DC"/>
<path d="M78.7585 0.907085C78.5783 0.363918 78.0727 0 77.5 0C76.9272 0 76.4216 0.364902 76.2414 0.908068C75.5511 2.99179 74.9907 3.5528 72.909 4.24059C72.3659 4.41984 72.001 4.92547 72 5.49826C71.999 6.07253 72.3639 6.57866 72.908 6.75939C74.9908 7.44723 75.5516 8.00817 76.2414 10.0929C76.4226 10.6351 76.9277 11 77.4995 11C78.0713 11 78.5779 10.6351 78.7581 10.0919C79.4483 8.00821 80.0088 7.4472 82.093 6.7584C82.6361 6.57817 83.001 6.07155 83 5.49727C82.999 4.92449 82.6351 4.41885 82.093 4.24059C80.0093 3.55275 79.4484 2.99082 78.7586 0.907058L78.7585 0.907085ZM77.4995 7.43396C77.0097 6.59106 76.4078 5.98961 75.5649 5.49927C76.4087 5.00943 77.0091 4.40751 77.4995 3.56458C77.9893 4.40748 78.5912 5.00893 79.4341 5.49927C78.5927 5.9896 77.9908 6.59102 77.4995 7.43396ZM81.3962 6.34121C81.3972 6.34121 81.3972 6.34121 81.3962 6.34121H81.3982H81.3962Z" fill="#37C8DC"/>
</svg>
