<svg width="1308" height="564" viewBox="0 0 1308 564" fill="none" xmlns="http://www.w3.org/2000/svg">
<g clip-path="url(#clip0_101_340)">
<path d="M764.877 0.131836H663.706V491.472H764.877V0.131836Z" fill="#8A9DAE"/>
<path d="M787.603 0.131836H686.432V491.472H787.603V0.131836Z" fill="#D5E7F7"/>
<path d="M686.458 28.3938L787.603 28.3938V-3.8147e-05L686.458 -3.8147e-05V28.3938Z" fill="#8A9DAE"/>
<path d="M686.458 89.9753L787.603 89.9753V61.5815L686.458 61.5815V89.9753Z" fill="#8A9DAE"/>
<path d="M686.458 151.55H787.603V123.156L686.458 123.156V151.55Z" fill="#8A9DAE"/>
<path d="M686.458 213.125H787.603V184.732H686.458V213.125Z" fill="#8A9DAE"/>
<path d="M686.458 274.707H787.603V246.313H686.458V274.707Z" fill="#8A9DAE"/>
<path d="M686.458 336.281H787.603V307.887H686.458V336.281Z" fill="#8A9DAE"/>
<path d="M686.458 397.87H787.603V369.476H686.458V397.87Z" fill="#8A9DAE"/>
<path d="M686.458 459.445H787.603V431.051H686.458V459.445Z" fill="#8A9DAE"/>
<path d="M926.608 69.6526H825.437V491.465H926.608V69.6526Z" fill="#8A9DAE"/>
<path d="M949.334 69.6526H848.162V491.465H949.334V69.6526Z" fill="#D5E7F7"/>
<path d="M848.189 93.9187L949.334 93.9187V69.5472L848.189 69.5472V93.9187Z" fill="#8A9DAE"/>
<path d="M848.189 146.789H949.334V122.418L848.189 122.418V146.789Z" fill="#8A9DAE"/>
<path d="M848.189 199.647H949.334V175.276H848.189V199.647Z" fill="#8A9DAE"/>
<path d="M848.189 252.512H949.334V228.14H848.189V252.512Z" fill="#8A9DAE"/>
<path d="M848.189 305.382H949.334V281.011H848.189V305.382Z" fill="#8A9DAE"/>
<path d="M848.189 358.246H949.334V333.875H848.189V358.246Z" fill="#8A9DAE"/>
<path d="M848.189 411.111H949.334V386.739H848.189V411.111Z" fill="#8A9DAE"/>
<path d="M848.189 463.975H949.334V439.603H848.189V463.975Z" fill="#8A9DAE"/>
<path d="M608.951 538.098H651.319V476.398H608.951V538.098Z" fill="#DCEAF9"/>
<path d="M621.891 392.232V563.524H173.127H170.07L55.5674 562.423C55.4684 562.252 55.3561 562.054 55.2175 561.823C55.0326 561.493 54.8081 561.104 54.5572 560.663L54.2469 560.188C53.9036 559.581 53.5206 558.869 53.0914 558.111C52.5698 557.161 51.9822 556.073 51.3352 554.866C48.9252 550.356 45.7296 544.105 42.0915 536.337C40.8943 533.788 39.6596 531.073 38.3875 528.194C37.8791 527.046 37.3706 525.886 36.8556 524.692C36.3539 523.545 35.8521 522.364 35.3503 521.164L35.2974 521.046C34.9541 520.221 34.5976 519.391 34.2477 518.533C33.8977 517.676 33.5213 516.786 33.1516 515.896C31.2765 511.28 29.3617 506.414 27.4536 501.264C27.4007 501.132 27.3545 500.987 27.3017 500.855C26.0516 497.483 24.8103 494.006 23.5778 490.423C22.9176 488.445 22.2573 486.467 21.5575 484.423L21.4386 484.04C21.1415 483.137 20.851 482.233 20.5538 481.323C20.3096 480.552 20.0653 479.787 19.8276 479.015C19.3258 477.42 18.8262 475.809 18.3288 474.182C17.6685 472.098 17.0611 469.975 16.4404 467.832C15.6041 464.917 14.7854 461.954 13.9843 458.943L13.2712 456.226C12.5713 453.503 11.8781 450.747 11.2112 447.958C10.9933 447.061 10.782 446.164 10.5509 445.261C10.4123 444.707 10.2868 444.146 10.1614 443.592C9.15338 439.196 8.19823 434.697 7.29587 430.094C6.30989 425.048 5.40751 419.909 4.58879 414.678C3.83609 409.842 3.16263 404.938 2.5684 399.966C2.01378 395.276 1.54282 390.526 1.15547 385.717C0.237712 374.507 -0.165046 362.934 1.9011e-05 351.177C0.274952 330.005 2.6458 308.911 7.07798 288.204C7.24304 287.426 7.41472 286.655 7.58639 285.87C8.73084 280.784 10.0161 275.689 11.4423 270.585C12.5295 266.686 13.7048 262.789 14.9681 258.894C15.8924 256.072 16.8586 253.245 17.8666 250.414C20.1643 244.013 22.7217 237.611 25.5388 231.206H27.9356V225.93C43.247 192.96 65.8146 160.254 97.923 129.341L99.7255 127.614H101.601V193.138H159.703V86.2955H223.749V155.605H238.36V72.8899H302.405V228.001H383.439V318.464H413.712V341.266H483.257V302.025H523.189V195.367H572.55V392.232H621.891Z" fill="#D5E7F7"/>
<path d="M238.399 99.1343L302.504 99.1343V83.3284H238.399V99.1343Z" fill="#8A9DAE"/>
<path d="M238.399 128.834H302.504V113.028H238.399V128.834Z" fill="#8A9DAE"/>
<path d="M238.399 155.553H302.504V139.747H238.399V155.553Z" fill="#8A9DAE"/>
<path d="M159.736 155.553H223.841V139.747H159.736V155.553Z" fill="#8A9DAE"/>
<path d="M159.736 128.834H223.841V113.028H159.736V128.834Z" fill="#8A9DAE"/>
<path d="M159.736 102.161L223.841 102.161V86.3553H159.736V102.161Z" fill="#8A9DAE"/>
<path d="M159.716 181.454L302.504 181.454V165.648L159.716 165.648V181.454Z" fill="#8A9DAE"/>
<path d="M159.716 207.362L302.504 207.362V191.556L159.716 191.556V207.362Z" fill="#8A9DAE"/>
<path d="M522.794 219.785H572.551V195.387H522.794V219.785Z" fill="#8A9DAE"/>
<path d="M522.794 256.072H572.551V231.674H522.794V256.072Z" fill="#8A9DAE"/>
<path d="M522.794 292.359H572.551V267.961H522.794V292.359Z" fill="#8A9DAE"/>
<path d="M522.794 330.393H572.551V305.995H522.794V330.393Z" fill="#8A9DAE"/>
<path d="M522.794 367.254H572.551V342.856H522.794V367.254Z" fill="#8A9DAE"/>
<path d="M522.794 404.108H572.551V379.71H522.794V404.108Z" fill="#8A9DAE"/>
<path d="M522.794 442.669H572.551V418.272H522.794V442.669Z" fill="#8A9DAE"/>
<path d="M159.716 226.9L302.504 226.9V216.864L159.716 216.864V226.9Z" fill="#8A9DAE"/>
<path d="M523.486 195.381H505.138V302.013H523.486V195.381Z" fill="#8A9DAE"/>
<path d="M483.316 302.013H446.414V341.26H483.316V302.013Z" fill="#8A9DAE"/>
<path d="M159.736 86.3486V102.174V165.661V193.079H147V87.6081L148.717 86.3486H159.736Z" fill="#8A9DAE"/>
<path d="M238.4 72.8638H230.582V155.553H238.4V72.8638Z" fill="#8A9DAE"/>
<g opacity="0.8">
<path opacity="0.8" d="M359.393 258.855H370.254V243.563H359.393V258.855Z" fill="#8A9DAE"/>
<path opacity="0.8" d="M339.089 258.855H349.95V243.563H339.089V258.855Z" fill="#8A9DAE"/>
<path opacity="0.8" d="M319.229 258.855H330.09V243.563H319.229V258.855Z" fill="#8A9DAE"/>
<path opacity="0.8" d="M300.404 258.855H311.266V243.563H300.404V258.855Z" fill="#8A9DAE"/>
<path opacity="0.8" d="M281.218 258.855H292.079V243.563H281.218V258.855Z" fill="#8A9DAE"/>
<path opacity="0.8" d="M261.806 258.855H272.667V243.563H261.806V258.855Z" fill="#8A9DAE"/>
<path opacity="0.8" d="M241.496 258.855H252.357V243.563H241.496V258.855Z" fill="#8A9DAE"/>
<path opacity="0.8" d="M221.636 258.855H232.497V243.563H221.636V258.855Z" fill="#8A9DAE"/>
<path opacity="0.8" d="M202.818 258.855H213.68V243.563H202.818V258.855Z" fill="#8A9DAE"/>
<path opacity="0.8" d="M183.625 258.855H194.486V243.563H183.625V258.855Z" fill="#8A9DAE"/>
<path opacity="0.8" d="M163.632 258.855H174.493V243.563H163.632V258.855Z" fill="#8A9DAE"/>
<path opacity="0.8" d="M143.322 258.855H154.184V243.563H143.322V258.855Z" fill="#8A9DAE"/>
<path opacity="0.8" d="M123.462 258.855H134.323V243.563H123.462V258.855Z" fill="#8A9DAE"/>
<path opacity="0.8" d="M104.631 258.855H115.492V243.563H104.631V258.855Z" fill="#8A9DAE"/>
<path opacity="0.8" d="M85.4503 258.855H96.3115V243.563H85.4503V258.855Z" fill="#8A9DAE"/>
<path opacity="0.8" d="M66.0391 258.855H76.9004V243.563H66.0391V258.855Z" fill="#8A9DAE"/>
<path opacity="0.8" d="M45.7295 258.855H56.5908V243.563H45.7295V258.855Z" fill="#8A9DAE"/>
<path opacity="0.8" d="M25.8751 258.855H36.7363V243.563H25.8751V258.855Z" fill="#8A9DAE"/>
<path opacity="0.8" d="M17.9327 250.375V258.842H15.0342C15.9409 256.028 16.9071 253.206 17.9327 250.375Z" fill="#8A9DAE"/>
<path opacity="0.8" d="M359.393 285.831H370.254V270.539H359.393V285.831Z" fill="#8A9DAE"/>
<path opacity="0.8" d="M339.089 285.831H349.95V270.539H339.089V285.831Z" fill="#8A9DAE"/>
<path opacity="0.8" d="M319.229 285.831H330.09V270.539H319.229V285.831Z" fill="#8A9DAE"/>
<path opacity="0.8" d="M300.404 285.831H311.266V270.539H300.404V285.831Z" fill="#8A9DAE"/>
<path opacity="0.8" d="M281.218 285.831H292.079V270.539H281.218V285.831Z" fill="#8A9DAE"/>
<path opacity="0.8" d="M261.806 285.831H272.667V270.539H261.806V285.831Z" fill="#8A9DAE"/>
<path opacity="0.8" d="M241.496 285.831H252.357V270.539H241.496V285.831Z" fill="#8A9DAE"/>
<path opacity="0.8" d="M221.636 285.831H232.497V270.539H221.636V285.831Z" fill="#8A9DAE"/>
<path opacity="0.8" d="M202.818 285.831H213.68V270.539H202.818V285.831Z" fill="#8A9DAE"/>
<path opacity="0.8" d="M183.625 285.831H194.486V270.539H183.625V285.831Z" fill="#8A9DAE"/>
<path opacity="0.8" d="M163.632 285.831H174.493V270.539H163.632V285.831Z" fill="#8A9DAE"/>
<path opacity="0.8" d="M143.322 285.831H154.184V270.539H143.322V285.831Z" fill="#8A9DAE"/>
<path opacity="0.8" d="M123.462 285.831H134.323V270.539H123.462V285.831Z" fill="#8A9DAE"/>
<path opacity="0.8" d="M104.631 285.831H115.492V270.539H104.631V285.831Z" fill="#8A9DAE"/>
<path opacity="0.8" d="M85.4503 285.831H96.3115V270.539H85.4503V285.831Z" fill="#8A9DAE"/>
<path opacity="0.8" d="M66.0391 285.831H76.9004V270.539H66.0391V285.831Z" fill="#8A9DAE"/>
<path opacity="0.8" d="M45.7295 285.831H56.5908V270.539H45.7295V285.831Z" fill="#8A9DAE"/>
<path opacity="0.8" d="M25.8751 285.831H36.7363V270.539H25.8751V285.831Z" fill="#8A9DAE"/>
<path opacity="0.8" d="M17.9326 270.546V285.831H7.62598C8.77043 280.744 10.0557 275.649 11.4819 270.546H17.9326Z" fill="#8A9DAE"/>
<path opacity="0.8" d="M359.393 312.398H370.254V297.107H359.393V312.398Z" fill="#8A9DAE"/>
<path opacity="0.8" d="M339.089 312.398H349.95V297.107H339.089V312.398Z" fill="#8A9DAE"/>
<path opacity="0.8" d="M319.229 312.398H330.09V297.107H319.229V312.398Z" fill="#8A9DAE"/>
<path opacity="0.8" d="M300.404 312.398H311.266V297.107H300.404V312.398Z" fill="#8A9DAE"/>
<path opacity="0.8" d="M281.218 312.398H292.079V297.107H281.218V312.398Z" fill="#8A9DAE"/>
<path opacity="0.8" d="M261.806 312.398H272.667V297.107H261.806V312.398Z" fill="#8A9DAE"/>
<path opacity="0.8" d="M241.496 312.398H252.357V297.107H241.496V312.398Z" fill="#8A9DAE"/>
<path opacity="0.8" d="M221.636 312.398H232.497V297.107H221.636V312.398Z" fill="#8A9DAE"/>
<path opacity="0.8" d="M202.818 312.398H213.68V297.107H202.818V312.398Z" fill="#8A9DAE"/>
<path opacity="0.8" d="M183.625 312.398H194.486V297.107H183.625V312.398Z" fill="#8A9DAE"/>
<path opacity="0.8" d="M163.632 312.398H174.493V297.107H163.632V312.398Z" fill="#8A9DAE"/>
<path opacity="0.8" d="M143.322 312.398H154.184V297.107H143.322V312.398Z" fill="#8A9DAE"/>
<path opacity="0.8" d="M123.462 312.398H134.323V297.107H123.462V312.398Z" fill="#8A9DAE"/>
<path opacity="0.8" d="M104.631 312.398H115.492V297.107H104.631V312.398Z" fill="#8A9DAE"/>
<path opacity="0.8" d="M85.4503 312.398H96.3115V297.107H85.4503V312.398Z" fill="#8A9DAE"/>
<path opacity="0.8" d="M66.0391 312.398H76.9004V297.107H66.0391V312.398Z" fill="#8A9DAE"/>
<path opacity="0.8" d="M45.7295 312.398H56.5908V297.107H45.7295V312.398Z" fill="#8A9DAE"/>
<path opacity="0.8" d="M25.8751 312.398H36.7363V297.107H25.8751V312.398Z" fill="#8A9DAE"/>
<path opacity="0.8" d="M7.04492 312.398H17.9062L17.9062 297.107H7.04492L7.04492 312.398Z" fill="#8A9DAE"/>
<path opacity="0.8" d="M359.393 340.634H370.254V325.342H359.393V340.634Z" fill="#8A9DAE"/>
<path opacity="0.8" d="M339.089 340.634H349.95V325.342H339.089V340.634Z" fill="#8A9DAE"/>
<path opacity="0.8" d="M319.229 340.634H330.09V325.342H319.229V340.634Z" fill="#8A9DAE"/>
<path opacity="0.8" d="M300.404 340.634H311.266V325.342H300.404V340.634Z" fill="#8A9DAE"/>
<path opacity="0.8" d="M281.218 340.634H292.079V325.342H281.218V340.634Z" fill="#8A9DAE"/>
<path opacity="0.8" d="M261.806 340.634H272.667V325.342H261.806V340.634Z" fill="#8A9DAE"/>
<path opacity="0.8" d="M241.496 340.634H252.357V325.342H241.496V340.634Z" fill="#8A9DAE"/>
<path opacity="0.8" d="M221.636 340.634H232.497V325.342H221.636V340.634Z" fill="#8A9DAE"/>
<path opacity="0.8" d="M202.818 340.634H213.68V325.342H202.818V340.634Z" fill="#8A9DAE"/>
<path opacity="0.8" d="M183.625 340.634H194.486V325.342H183.625V340.634Z" fill="#8A9DAE"/>
<path opacity="0.8" d="M163.632 340.634H174.493V325.342H163.632V340.634Z" fill="#8A9DAE"/>
<path opacity="0.8" d="M143.322 340.634H154.184V325.342H143.322V340.634Z" fill="#8A9DAE"/>
<path opacity="0.8" d="M123.462 340.634H134.323V325.342H123.462V340.634Z" fill="#8A9DAE"/>
<path opacity="0.8" d="M104.631 340.634H115.492V325.342H104.631V340.634Z" fill="#8A9DAE"/>
<path opacity="0.8" d="M85.4503 340.634H96.3115V325.342H85.4503V340.634Z" fill="#8A9DAE"/>
<path opacity="0.8" d="M66.0391 340.634H76.9004V325.342H66.0391V340.634Z" fill="#8A9DAE"/>
<path opacity="0.8" d="M45.7295 340.634H56.5908V325.342H45.7295V340.634Z" fill="#8A9DAE"/>
<path opacity="0.8" d="M25.8751 340.634H36.7363V325.342H25.8751V340.634Z" fill="#8A9DAE"/>
<path opacity="0.8" d="M7.04492 340.634H17.9062L17.9062 325.342H7.04492L7.04492 340.634Z" fill="#8A9DAE"/>
<path opacity="0.8" d="M359.393 367.61H370.254V352.318H359.393V367.61Z" fill="#8A9DAE"/>
<path opacity="0.8" d="M339.089 367.61H349.95V352.318H339.089V367.61Z" fill="#8A9DAE"/>
<path opacity="0.8" d="M319.229 367.61H330.09V352.318H319.229V367.61Z" fill="#8A9DAE"/>
<path opacity="0.8" d="M300.404 367.61H311.266V352.318H300.404V367.61Z" fill="#8A9DAE"/>
<path opacity="0.8" d="M281.218 367.61H292.079V352.318H281.218V367.61Z" fill="#8A9DAE"/>
<path opacity="0.8" d="M261.806 367.61H272.667V352.318H261.806V367.61Z" fill="#8A9DAE"/>
<path opacity="0.8" d="M241.496 367.61H252.357V352.318H241.496V367.61Z" fill="#8A9DAE"/>
<path opacity="0.8" d="M221.636 367.61H232.497V352.318H221.636V367.61Z" fill="#8A9DAE"/>
<path opacity="0.8" d="M202.818 367.61H213.68V352.318H202.818V367.61Z" fill="#8A9DAE"/>
<path opacity="0.8" d="M183.625 367.61H194.486V352.318H183.625V367.61Z" fill="#8A9DAE"/>
<path opacity="0.8" d="M163.632 367.61H174.493V352.318H163.632V367.61Z" fill="#8A9DAE"/>
<path opacity="0.8" d="M143.322 367.61H154.184V352.318H143.322V367.61Z" fill="#8A9DAE"/>
<path opacity="0.8" d="M123.462 367.61H134.323V352.318H123.462V367.61Z" fill="#8A9DAE"/>
<path opacity="0.8" d="M104.631 367.61H115.492V352.318H104.631V367.61Z" fill="#8A9DAE"/>
<path opacity="0.8" d="M85.4503 367.61H96.3115V352.318H85.4503V367.61Z" fill="#8A9DAE"/>
<path opacity="0.8" d="M66.0391 367.61H76.9004V352.318H66.0391V367.61Z" fill="#8A9DAE"/>
<path opacity="0.8" d="M45.7295 367.61H56.5908V352.318H45.7295V367.61Z" fill="#8A9DAE"/>
<path opacity="0.8" d="M25.8751 367.61H36.7363V352.318H25.8751V367.61Z" fill="#8A9DAE"/>
<path opacity="0.8" d="M7.04492 367.61H17.9062L17.9062 352.318H7.04492L7.04492 367.61Z" fill="#8A9DAE"/>
<path opacity="0.8" d="M359.393 394.17H370.254V378.879H359.393V394.17Z" fill="#8A9DAE"/>
<path opacity="0.8" d="M339.089 394.17H349.95V378.879H339.089V394.17Z" fill="#8A9DAE"/>
<path opacity="0.8" d="M319.229 394.17H330.09V378.879H319.229V394.17Z" fill="#8A9DAE"/>
<path opacity="0.8" d="M300.404 394.17H311.266V378.879H300.404V394.17Z" fill="#8A9DAE"/>
<path opacity="0.8" d="M281.218 394.17H292.079V378.879H281.218V394.17Z" fill="#8A9DAE"/>
<path opacity="0.8" d="M261.806 394.17H272.667V378.879H261.806V394.17Z" fill="#8A9DAE"/>
<path opacity="0.8" d="M241.496 394.17H252.357V378.879H241.496V394.17Z" fill="#8A9DAE"/>
<path opacity="0.8" d="M221.636 394.171H232.497V378.879H221.636V394.171Z" fill="#8A9DAE"/>
<path opacity="0.8" d="M202.818 394.171H213.68V378.879H202.818V394.171Z" fill="#8A9DAE"/>
<path opacity="0.8" d="M183.625 394.17H194.486V378.879H183.625V394.17Z" fill="#8A9DAE"/>
<path opacity="0.8" d="M163.632 394.17H174.493V378.879H163.632V394.17Z" fill="#8A9DAE"/>
<path opacity="0.8" d="M143.322 394.171H154.184V378.879H143.322V394.171Z" fill="#8A9DAE"/>
<path opacity="0.8" d="M123.462 394.17H134.323V378.879H123.462V394.17Z" fill="#8A9DAE"/>
<path opacity="0.8" d="M104.631 394.17H115.492V378.879H104.631V394.17Z" fill="#8A9DAE"/>
<path opacity="0.8" d="M85.4503 394.17H96.3115V378.879H85.4503V394.17Z" fill="#8A9DAE"/>
<path opacity="0.8" d="M66.0391 394.171H76.9004V378.879H66.0391V394.171Z" fill="#8A9DAE"/>
<path opacity="0.8" d="M45.7295 394.171H56.5908V378.879H45.7295V394.171Z" fill="#8A9DAE"/>
<path opacity="0.8" d="M25.8751 394.17H36.7363V378.879H25.8751V394.17Z" fill="#8A9DAE"/>
<path opacity="0.8" d="M7.04492 394.171H17.9062L17.9062 378.879H7.04492L7.04492 394.171Z" fill="#8A9DAE"/>
</g>
<path d="M194.67 562.424H446.414V426.791H194.67L194.67 562.424Z" fill="#8A9DAE"/>
<path d="M385.558 562.417H637.302V494.598H385.558V562.417Z" fill="#8A9DAE"/>
<path d="M174.486 447.918V562.424H55.5671C55.4681 562.252 55.3558 562.054 55.2172 561.824C55.0323 561.494 54.8078 561.105 54.5569 560.663L54.2466 560.188C53.9033 559.582 53.5203 558.869 53.0912 558.111C52.5696 557.162 51.982 556.074 51.3349 554.867C48.925 550.357 45.7293 544.105 42.0913 536.338C40.894 533.788 39.6593 531.073 38.3872 528.194C37.8788 527.047 37.3704 525.886 36.8554 524.693C36.3536 523.545 35.8518 522.365 35.35 521.165L35.2972 521.046C34.9538 520.222 34.5973 519.391 34.2474 518.534C33.8975 517.677 33.5211 516.786 33.1513 515.896C31.2762 511.28 29.3614 506.414 27.4533 501.264C27.4005 501.132 27.3543 500.987 27.3015 500.855C26.0514 497.484 24.8101 494.006 23.5776 490.423C22.9173 488.445 22.2571 486.467 21.5572 484.423L21.4383 484.041C21.1412 483.137 20.8507 482.234 20.5536 481.324C20.3093 480.552 20.065 479.787 19.8273 479.016C19.3255 477.42 18.8259 475.809 18.3285 474.182C17.6683 472.099 17.0608 469.975 16.4402 467.832C15.6039 464.918 14.7851 461.955 13.984 458.944L13.2709 456.227C12.5711 453.504 11.8778 450.747 11.2109 447.958L174.486 447.918Z" fill="#8A9DAE"/>
<path d="M382.693 467.793H429.598V442.669H382.693V467.793Z" fill="#D5E7F7"/>
<path d="M322.491 467.793H369.396V442.669H322.491V467.793Z" fill="#D5E7F7"/>
<path d="M263.43 467.793H310.335V442.669H263.43V467.793Z" fill="#D5E7F7"/>
<path d="M205.5 467.793H252.404V442.669H205.5V467.793Z" fill="#D5E7F7"/>
<path d="M173.12 563.591H197.285L197.285 426.791H173.12L173.12 563.591Z" fill="#617585"/>
<path d="M561.339 195.381H562.646V184.764H561.339V195.381Z" fill="#DCEAF9"/>
<path d="M514.322 195.381H515.629V184.764H514.322V195.381Z" fill="#DCEAF9"/>
<path d="M2.6084 399.954C3.19823 404.926 3.87169 409.829 4.62879 414.665C5.44311 419.892 6.34549 425.031 7.33588 430.082C8.21622 434.662 9.17138 439.162 10.2014 443.58C10.3268 444.134 10.4523 444.694 10.591 445.248C10.7956 446.151 11.0069 447.048 11.2512 447.945C11.9115 450.734 12.6113 453.49 13.3112 456.214L14.0243 458.93C14.8254 461.946 15.6441 464.909 16.4805 467.819C17.1011 469.962 17.7283 472.086 18.3688 474.169C18.8662 475.8 19.3658 477.411 19.8676 479.003C20.1053 479.774 20.3496 480.539 20.5939 481.311C20.891 482.221 21.1815 483.124 21.4786 484.027L21.5975 484.41C22.2577 486.441 22.918 488.439 23.6179 490.41C24.8503 493.998 26.0916 497.475 27.3417 500.842C27.3945 500.974 27.4408 501.119 27.4936 501.251C29.4017 506.401 31.3165 511.287 33.1916 515.883C33.5614 516.773 33.9245 517.657 34.2877 518.521C34.6508 519.384 34.9941 520.209 35.3375 521.033L35.3903 521.152V399.954H2.6084Z" fill="#D5E7F7"/>
<path d="M35.3638 445.221V521.132L35.311 521.013C34.9676 520.189 34.6111 519.358 34.2611 518.501C33.9112 517.644 33.5349 516.753 33.1651 515.863C31.29 511.247 29.3752 506.381 27.4671 501.231C27.4143 501.099 27.368 500.954 27.3152 500.822C26.0651 497.45 24.8238 493.973 23.5914 490.39C22.9311 488.412 22.2708 486.434 21.571 484.39L21.4521 484.007C21.155 483.104 20.8645 482.201 20.5674 481.291C20.3231 480.519 20.0788 479.754 19.8411 478.983C19.3393 477.387 18.8397 475.776 18.3423 474.149C17.682 472.066 17.0746 469.942 16.454 467.799C15.6176 464.885 14.7989 461.922 13.9978 458.911L13.2847 456.194C12.5848 453.471 11.8916 450.714 11.2247 447.925C11.0068 447.028 10.7955 446.131 10.5645 445.228L35.3638 445.221Z" fill="#D5E7F7"/>
<path d="M35.363 430.055V467.793H16.4532C15.6169 464.878 14.7981 461.916 13.997 458.904L13.284 456.188C12.5841 453.464 11.8908 450.708 11.224 447.919C11.0061 447.022 10.7948 446.125 10.5637 445.222C10.4251 444.668 10.2996 444.107 10.1741 443.553C9.16614 439.157 8.21095 434.658 7.30859 430.055H35.363Z" fill="#8A9DAE"/>
<path d="M23.5911 478.976V490.384C22.9308 488.406 22.2706 486.427 21.5707 484.383L21.4519 484.001C21.1547 483.097 20.8642 482.194 20.5671 481.284C20.3228 480.512 20.0785 479.748 19.8408 478.976H23.5911Z" fill="#8A9DAE"/>
<path d="M14.7168 453.55H22.1777V440.658H14.7168L14.7168 453.55Z" fill="#617585"/>
<path d="M589.651 561.316H762.5V445.221H589.651V561.316Z" fill="#D5E7F7"/>
<path d="M589.651 467.793H762.5V430.062H589.651V467.793Z" fill="#8A9DAE"/>
<path d="M741.854 491.472H750.735V478.976H741.854V491.472Z" fill="#8A9DAE"/>
<path d="M725.249 491.472H734.129V478.976H725.249V491.472Z" fill="#8A9DAE"/>
<path d="M709.02 491.472H717.9V478.976H709.02V491.472Z" fill="#8A9DAE"/>
<path d="M693.642 491.472H702.516V478.976H693.642V491.472Z" fill="#8A9DAE"/>
<path d="M677.954 491.472H686.835V478.976H677.954V491.472Z" fill="#8A9DAE"/>
<path d="M662.088 491.472H670.969V478.976H662.088V491.472Z" fill="#8A9DAE"/>
<path d="M645.489 491.472H654.369V478.976H645.489V491.472Z" fill="#8A9DAE"/>
<path d="M629.26 491.472H638.141V478.976H629.26V491.472Z" fill="#8A9DAE"/>
<path d="M613.869 491.472H622.75V478.976H613.869V491.472Z" fill="#8A9DAE"/>
<path d="M598.194 491.472H607.068V478.976H598.194V491.472Z" fill="#8A9DAE"/>
<path d="M741.854 513.522H750.735V501.026H741.854V513.522Z" fill="#8A9DAE"/>
<path d="M725.249 513.522H734.129V501.026H725.249V513.522Z" fill="#8A9DAE"/>
<path d="M709.019 513.522H717.899V501.026H709.019V513.522Z" fill="#8A9DAE"/>
<path d="M693.642 513.522H702.516V501.026H693.642V513.522Z" fill="#8A9DAE"/>
<path d="M677.954 513.522H686.835V501.026H677.954V513.522Z" fill="#8A9DAE"/>
<path d="M662.088 513.522H670.969V501.026H662.088V513.522Z" fill="#8A9DAE"/>
<path d="M645.489 513.522H654.369V501.026H645.489V513.522Z" fill="#8A9DAE"/>
<path d="M629.26 513.522H638.141V501.026H629.26V513.522Z" fill="#8A9DAE"/>
<path d="M613.869 513.522H622.75V501.026H613.869V513.522Z" fill="#8A9DAE"/>
<path d="M598.194 513.522H607.068V501.026H598.194V513.522Z" fill="#8A9DAE"/>
<path d="M741.854 535.23H750.735V522.734H741.854V535.23Z" fill="#8A9DAE"/>
<path d="M725.249 535.23H734.129V522.734H725.249V535.23Z" fill="#8A9DAE"/>
<path d="M709.02 535.23H717.9V522.734H709.02V535.23Z" fill="#8A9DAE"/>
<path d="M693.642 535.23H702.516V522.734H693.642V535.23Z" fill="#8A9DAE"/>
<path d="M677.954 535.23H686.835V522.734H677.954V535.23Z" fill="#8A9DAE"/>
<path d="M662.088 535.23H670.969V522.734H662.088V535.23Z" fill="#8A9DAE"/>
<path d="M645.489 535.23H654.369V522.734H645.489V535.23Z" fill="#8A9DAE"/>
<path d="M629.26 535.23H638.141V522.734H629.26V535.23Z" fill="#8A9DAE"/>
<path d="M613.869 535.23H622.75V522.734H613.869V535.23Z" fill="#8A9DAE"/>
<path d="M598.194 535.23H607.068V522.734H598.194V535.23Z" fill="#8A9DAE"/>
<path d="M741.855 453.55H749.315V440.658H741.855V453.55Z" fill="#617585"/>
<path d="M667.8 453.55H675.261V440.658H667.8V453.55Z" fill="#617585"/>
<path d="M608.878 453.55H616.339V440.658H608.878V453.55Z" fill="#617585"/>
<path d="M773.362 561.316H946.211V445.221H773.362V561.316Z" fill="#D5E7F7"/>
<path d="M773.362 467.793H946.211V430.062H773.362V467.793Z" fill="#8A9DAE"/>
<path d="M925.565 491.472H934.445V478.976H925.565V491.472Z" fill="#8A9DAE"/>
<path d="M908.959 491.472H917.84V478.976H908.959V491.472Z" fill="#8A9DAE"/>
<path d="M892.737 491.472H901.61V478.976H892.737V491.472Z" fill="#8A9DAE"/>
<path d="M877.346 491.472H886.22V478.976H877.346V491.472Z" fill="#8A9DAE"/>
<path d="M861.659 491.472H870.539V478.976H861.659V491.472Z" fill="#8A9DAE"/>
<path d="M845.799 491.472H854.68V478.976H845.799V491.472Z" fill="#8A9DAE"/>
<path d="M829.2 491.472H838.074V478.976H829.2V491.472Z" fill="#8A9DAE"/>
<path d="M812.971 491.472H821.845V478.976H812.971V491.472Z" fill="#8A9DAE"/>
<path d="M797.58 491.472H806.461V478.976H797.58V491.472Z" fill="#8A9DAE"/>
<path d="M781.899 491.472H790.779V478.976H781.899V491.472Z" fill="#8A9DAE"/>
<path d="M925.565 513.522H934.445V501.026H925.565V513.522Z" fill="#8A9DAE"/>
<path d="M908.959 513.522H917.84V501.026H908.959V513.522Z" fill="#8A9DAE"/>
<path d="M892.737 513.522H901.61V501.026H892.737V513.522Z" fill="#8A9DAE"/>
<path d="M877.346 513.522H886.22V501.026H877.346V513.522Z" fill="#8A9DAE"/>
<path d="M861.659 513.522H870.539V501.026H861.659V513.522Z" fill="#8A9DAE"/>
<path d="M845.799 513.522H854.68V501.026H845.799V513.522Z" fill="#8A9DAE"/>
<path d="M829.199 513.522H838.073V501.026H829.199V513.522Z" fill="#8A9DAE"/>
<path d="M812.971 513.522H821.845V501.026H812.971V513.522Z" fill="#8A9DAE"/>
<path d="M797.58 513.522H806.461V501.026H797.58V513.522Z" fill="#8A9DAE"/>
<path d="M781.899 513.522H790.779V501.026H781.899V513.522Z" fill="#8A9DAE"/>
<path d="M925.565 535.23H934.445V522.734H925.565V535.23Z" fill="#8A9DAE"/>
<path d="M908.959 535.23H917.84V522.734H908.959V535.23Z" fill="#8A9DAE"/>
<path d="M892.737 535.23H901.61V522.734H892.737V535.23Z" fill="#8A9DAE"/>
<path d="M877.346 535.23H886.22V522.734H877.346V535.23Z" fill="#8A9DAE"/>
<path d="M861.659 535.23H870.539V522.734H861.659V535.23Z" fill="#8A9DAE"/>
<path d="M845.799 535.23H854.68V522.734H845.799V535.23Z" fill="#8A9DAE"/>
<path d="M829.2 535.23H838.074V522.734H829.2V535.23Z" fill="#8A9DAE"/>
<path d="M812.971 535.23H821.845V522.734H812.971V535.23Z" fill="#8A9DAE"/>
<path d="M797.58 535.23H806.461V522.734H797.58V535.23Z" fill="#8A9DAE"/>
<path d="M781.899 535.23H790.779V522.734H781.899V535.23Z" fill="#8A9DAE"/>
<path d="M925.564 453.55H933.025V440.658H925.564V453.55Z" fill="#617585"/>
<path d="M851.497 453.55H858.958V440.658H851.497V453.55Z" fill="#617585"/>
<path d="M792.588 453.55H800.049V440.658H792.588V453.55Z" fill="#617585"/>
<path d="M1135.15 561.316H1308V445.221H1135.15V561.316Z" fill="#D5E7F7"/>
<path d="M1135.15 467.793H1308V430.062H1135.15V467.793Z" fill="#8A9DAE"/>
<path d="M1287.35 491.472H1296.23V478.976H1287.35V491.472Z" fill="#8A9DAE"/>
<path d="M1270.75 491.472H1279.63V478.976H1270.75V491.472Z" fill="#8A9DAE"/>
<path d="M1254.53 491.472H1263.4V478.976H1254.53V491.472Z" fill="#8A9DAE"/>
<path d="M1239.13 491.472H1248.02V478.976H1239.13V491.472Z" fill="#8A9DAE"/>
<path d="M1223.45 491.472H1232.33V478.976H1223.45V491.472Z" fill="#8A9DAE"/>
<path d="M1207.59 491.472H1216.47V478.976H1207.59V491.472Z" fill="#8A9DAE"/>
<path d="M1190.99 491.472H1199.87V478.976H1190.99V491.472Z" fill="#8A9DAE"/>
<path d="M1174.76 491.472H1183.64V478.976H1174.76V491.472Z" fill="#8A9DAE"/>
<path d="M1159.37 491.472H1168.25V478.976H1159.37V491.472Z" fill="#8A9DAE"/>
<path d="M1143.69 491.472H1152.57V478.976H1143.69V491.472Z" fill="#8A9DAE"/>
<path d="M1287.35 513.522H1296.23V501.026H1287.35V513.522Z" fill="#8A9DAE"/>
<path d="M1270.75 513.522H1279.63V501.026H1270.75V513.522Z" fill="#8A9DAE"/>
<path d="M1254.53 513.522H1263.4V501.026H1254.53V513.522Z" fill="#8A9DAE"/>
<path d="M1239.13 513.522H1248.02V501.026H1239.13V513.522Z" fill="#8A9DAE"/>
<path d="M1223.45 513.522H1232.33V501.026H1223.45V513.522Z" fill="#8A9DAE"/>
<path d="M1207.59 513.522H1216.47V501.026H1207.59V513.522Z" fill="#8A9DAE"/>
<path d="M1190.99 513.522H1199.87V501.026H1190.99V513.522Z" fill="#8A9DAE"/>
<path d="M1174.76 513.522H1183.64V501.026H1174.76V513.522Z" fill="#8A9DAE"/>
<path d="M1159.37 513.522H1168.25V501.026H1159.37V513.522Z" fill="#8A9DAE"/>
<path d="M1143.69 513.522H1152.57V501.026H1143.69V513.522Z" fill="#8A9DAE"/>
<path d="M1287.35 535.23H1296.23V522.734H1287.35V535.23Z" fill="#8A9DAE"/>
<path d="M1270.75 535.23H1279.63V522.734H1270.75V535.23Z" fill="#8A9DAE"/>
<path d="M1254.53 535.23H1263.4V522.734H1254.53V535.23Z" fill="#8A9DAE"/>
<path d="M1239.13 535.23H1248.02V522.734H1239.13V535.23Z" fill="#8A9DAE"/>
<path d="M1223.45 535.23H1232.33V522.734H1223.45V535.23Z" fill="#8A9DAE"/>
<path d="M1207.59 535.23H1216.47V522.734H1207.59V535.23Z" fill="#8A9DAE"/>
<path d="M1190.99 535.23H1199.87V522.734H1190.99V535.23Z" fill="#8A9DAE"/>
<path d="M1174.76 535.23H1183.64V522.734H1174.76V535.23Z" fill="#8A9DAE"/>
<path d="M1159.37 535.23H1168.25V522.734H1159.37V535.23Z" fill="#8A9DAE"/>
<path d="M1143.69 535.23H1152.57V522.734H1143.69V535.23Z" fill="#8A9DAE"/>
<path d="M1287.35 453.55H1294.81V440.658H1287.35V453.55Z" fill="#617585"/>
<path d="M1213.29 453.55H1220.75V440.658H1213.29V453.55Z" fill="#617585"/>
<path d="M1154.38 453.55H1161.84V440.658H1154.38V453.55Z" fill="#617585"/>
</g>
<defs>
<clipPath id="clip0_101_340">
<rect width="1308" height="563.591" fill="white"/>
</clipPath>
</defs>
</svg>
