<svg width="156" height="58" viewBox="0 0 156 58" fill="none" xmlns="http://www.w3.org/2000/svg">
<circle cx="29" cy="29" r="29" fill="url(#paint0_linear_101_285)"/>
<path d="M78.9833 43.4481C83.6233 43.4481 87.4633 41.1121 87.4633 36.2801C87.4633 31.2561 83.1753 30.2001 79.7833 29.3361C77.3833 28.7601 75.4633 28.2801 75.4633 26.7121C75.4633 25.2401 77.0313 24.5681 78.5993 24.5681C80.4233 24.5681 82.0233 25.4641 82.0233 27.4161H86.7913C86.7913 22.9361 83.8793 20.1841 78.7273 20.1841C73.7673 20.1841 70.5993 22.6161 70.5993 26.9041C70.5993 31.7361 74.6953 32.7281 78.0873 33.5601C80.5193 34.1041 82.5673 34.5841 82.5673 36.3441C82.5673 38.0081 80.7753 38.9681 78.9513 38.9681C76.9673 38.9681 75.1753 37.9121 75.1753 35.7681H70.2793C70.2793 40.5681 73.8313 43.4481 78.9833 43.4481Z" fill="#2E526B"/>
<path d="M106.412 25.7201L105.932 27.3521C104.428 26.0401 102.476 25.2401 100.236 25.2401C95.0518 25.2401 91.1798 29.1441 91.1798 34.3601C91.1798 39.5761 95.0518 43.5121 100.236 43.5121C102.444 43.5121 104.364 42.7441 105.836 41.4321L106.252 43.0001H109.9V25.7201H106.412ZM100.62 39.0961C97.8998 39.0961 95.9158 37.0481 95.9158 34.3601C95.9158 31.6401 97.8998 29.6241 100.62 29.6241C103.34 29.6241 105.324 31.6401 105.324 34.3601C105.324 37.0801 103.34 39.0961 100.62 39.0961Z" fill="#2E526B"/>
<path d="M129.786 25.7201L129.306 27.3521C127.802 26.0401 125.85 25.2401 123.61 25.2401C118.426 25.2401 114.554 29.1441 114.554 34.3601C114.554 39.5761 118.426 43.5121 123.61 43.5121C125.818 43.5121 127.738 42.7441 129.21 41.4321L129.626 43.0001H133.274V25.7201H129.786ZM123.994 39.0961C121.274 39.0961 119.29 37.0481 119.29 34.3601C119.29 31.6401 121.274 29.6241 123.994 29.6241C126.714 29.6241 128.698 31.6401 128.698 34.3601C128.698 37.0801 126.714 39.0961 123.994 39.0961Z" fill="#2E526B"/>
<path d="M146.823 43.4481C151.463 43.4481 155.303 41.1121 155.303 36.2801C155.303 31.2561 151.015 30.2001 147.623 29.3361C145.223 28.7601 143.303 28.2801 143.303 26.7121C143.303 25.2401 144.871 24.5681 146.439 24.5681C148.263 24.5681 149.863 25.4641 149.863 27.4161H154.631C154.631 22.9361 151.719 20.1841 146.567 20.1841C141.607 20.1841 138.439 22.6161 138.439 26.9041C138.439 31.7361 142.535 32.7281 145.927 33.5601C148.359 34.1041 150.407 34.5841 150.407 36.3441C150.407 38.0081 148.615 38.9681 146.791 38.9681C144.807 38.9681 143.015 37.9121 143.015 35.7681H138.119C138.119 40.5681 141.671 43.4481 146.823 43.4481Z" fill="#2E526B"/>
<path d="M42.4336 20H29.8594C29.4062 20 29.1797 20.5629 29.5195 20.9007L33.4844 24.8411L30.0859 28.2185L26.4609 24.6159C25.2148 23.3775 22.8359 23.3775 21.5898 24.6159L15.0195 31.1457C13.6602 32.4967 13.6602 34.6358 15.0195 35.9868C15.6992 36.6623 16.6055 37 17.3984 37C18.1914 37 19.2109 36.6623 19.7773 35.9868L23.9688 31.8212L27.5938 35.4238C28.9531 36.7748 31.1055 36.7748 32.4648 35.4238L38.3555 29.5695L42.0938 33.2848C42.4336 33.6225 43 33.3974 43 32.947V20.5629C43 20.2252 42.7734 20 42.4336 20Z" fill="white"/>
<defs>
<linearGradient id="paint0_linear_101_285" x1="0.830728" y1="-17.9249" x2="55.041" y2="14.6096" gradientUnits="userSpaceOnUse">
<stop stop-color="#CE5BEB"/>
<stop offset="1" stop-color="#5B61EB"/>
</linearGradient>
</defs>
</svg>
