<svg width="38" height="38" viewBox="0 0 38 38" fill="none" xmlns="http://www.w3.org/2000/svg">
<circle cx="19" cy="19" r="19" fill="#F1F6FF"/>
<g clip-path="url(#clip0_101_299)">
<path d="M26.9372 14.558C26.453 14.7774 25.9441 14.9305 25.4229 15.0136C25.6671 14.9695 26.023 14.5028 26.1661 14.3154C26.3907 14.0295 26.5623 13.7017 26.672 13.3491C26.672 13.3234 26.693 13.2866 26.672 13.2682C26.6595 13.2618 26.6458 13.2584 26.6319 13.2584C26.618 13.2584 26.6043 13.2618 26.5918 13.2682C26.023 13.5911 25.4182 13.8379 24.7914 14.0031C24.7698 14.0098 24.7469 14.0099 24.7252 14.0034C24.7036 13.9969 24.6842 13.9841 24.6692 13.9664C24.6214 13.9056 24.5689 13.8491 24.5122 13.7974C24.251 13.5633 23.9567 13.3736 23.6399 13.2352C23.2163 13.0549 22.7594 12.9783 22.3036 13.011C21.8615 13.0381 21.4299 13.1633 21.037 13.3785C20.6425 13.5956 20.2945 13.8958 20.0147 14.2603C19.723 14.6359 19.5144 15.0753 19.4041 15.5464C19.3071 15.9926 19.2952 16.4548 19.3692 16.9059C19.3692 16.9831 19.3692 16.9941 19.3098 16.9831C16.8395 16.6156 14.7739 15.664 13.127 13.6761C13.0572 13.5916 13.0189 13.5916 12.9595 13.6761C12.2303 14.8262 12.5827 16.6707 13.4934 17.5746C13.6133 17.7048 13.7402 17.8275 13.8737 17.9421C13.4567 17.9046 13.0509 17.7796 12.6804 17.5746C12.6071 17.5269 12.5722 17.5563 12.5653 17.6408C12.5608 17.7637 12.5678 17.8867 12.5862 18.0082C12.6587 18.5937 12.8774 19.1485 13.2201 19.6159C13.5628 20.0832 14.0171 20.4465 14.5366 20.6685C14.664 20.7266 14.7976 20.7686 14.9344 20.7934C14.5496 20.8749 14.1546 20.8885 13.7655 20.8338C13.6783 20.8338 13.6469 20.8595 13.6783 20.9477C14.1947 22.4175 15.3043 22.8621 16.1207 23.1156C16.2324 23.134 16.344 23.134 16.4697 23.1634C16.4697 23.1634 16.4697 23.1634 16.4697 23.1818C16.194 23.6264 15.2345 23.9571 14.7914 24.1187C13.9746 24.4253 13.1047 24.5431 12.2408 24.4641C12.1047 24.4421 12.0768 24.4421 12.0384 24.4641C12 24.4862 12.0384 24.5229 12.0768 24.5597C12.2512 24.6809 12.4257 24.7875 12.6071 24.8903C13.1485 25.1959 13.7209 25.4363 14.3133 25.6069C17.3734 26.4997 20.8242 25.8457 23.1235 23.439C24.9274 21.5503 25.566 18.9452 25.566 16.3364C25.566 16.2335 25.6811 16.1784 25.7509 16.1232C26.2082 15.7495 26.6114 15.3076 26.9477 14.8115C27.0015 14.7407 27.0299 14.6523 27.0279 14.5616C27 14.5175 27 14.5286 26.9372 14.558Z" fill="#2E526B"/>
</g>
<defs>
<clipPath id="clip0_101_299">
<rect width="15" height="13" fill="white" transform="translate(12 13)"/>
</clipPath>
</defs>
</svg>
